<svg width="200" height="200" viewBox="0 0 200 200" fill="none" xmlns="http://www.w3.org/2000/svg">
  <rect width="200" height="200" rx="40" fill="#DCFCE7" />
  <path d="M100 40C66.8629 40 40 66.8629 40 100C40 133.137 66.8629 160 100 160C133.137 160 160 133.137 160 100C160 66.8629 133.137 40 100 40Z" stroke="#16A34A" stroke-width="8" />
  <path d="M100 60C77.9086 60 60 77.9086 60 100C60 122.091 77.9086 140 100 140C122.091 140 140 122.091 140 100C140 77.9086 122.091 60 100 60Z" fill="#16A34A" />
  <path d="M100 80C89.0543 80 80 89.0543 80 100C80 110.946 89.0543 120 100 120C110.946 120 120 110.946 120 100C120 89.0543 110.946 80 100 80Z" fill="#DCFCE7" />
  <path d="M70 100H130M100 70V130" stroke="#DCFCE7" stroke-width="4" stroke-linecap="round" />
</svg> 